<?xml version="1.0" encoding="UTF-8" ?>
<!DOCTYPE svg PUBLIC "-//W3C//DTD SVG 1.1//EN" "http://www.w3.org/Graphics/SVG/1.1/DTD/svg11.dtd">
<svg width="89pt" height="67pt" viewBox="0 0 89 67" version="1.1" xmlns="http://www.w3.org/2000/svg">
<g id="#000000ff">
<path fill="#000000" opacity="1.00" d=" M 78.98 0.98 C 84.52 -1.69 90.85 4.69 88.09 10.20 C 86.10 6.21 82.82 3.16 78.98 0.98 Z" />
<path fill="#000000" opacity="1.00" d=" M 74.73 3.70 C 80.80 0.08 88.83 8.43 85.34 14.36 C 79.30 25.92 68.70 33.93 58.75 41.92 C 60.32 35.31 54.09 28.92 47.44 30.36 C 55.30 20.37 63.36 9.91 74.73 3.70 M 77.28 9.27 C 72.27 15.20 66.68 20.62 60.71 25.58 C 61.60 26.52 62.50 27.46 63.40 28.39 C 68.65 21.97 74.53 16.11 80.76 10.66 C 82.05 9.84 82.33 7.85 80.76 7.15 C 79.12 6.70 78.25 8.29 77.28 9.27 Z" />
<path fill="#000000" opacity="1.00" d=" M 1.18 20.52 C 3.99 19.50 7.03 19.69 9.97 19.66 C 24.72 19.86 39.47 19.54 54.22 19.85 C 52.48 21.47 50.61 23.34 47.99 22.92 C 33.11 22.92 18.23 22.89 3.35 22.92 C 3.36 36.65 3.38 50.39 3.42 64.12 C 30.81 64.13 58.19 64.14 85.58 64.12 C 85.64 50.49 85.59 36.86 85.69 23.23 C 84.27 22.99 82.85 22.75 81.44 22.50 C 82.62 21.49 83.79 20.45 85.09 19.58 C 86.22 19.89 87.27 20.37 88.24 21.03 C 89.30 24.94 88.80 29.05 88.87 33.05 C 88.94 43.74 88.81 54.43 88.81 65.12 C 88.40 65.59 87.57 66.53 87.15 67.00 L 2.27 67.00 C 1.74 66.62 0.67 65.86 0.14 65.48 C 0.26 52.31 0.00 39.13 0.12 25.96 C 0.21 24.12 0.23 22.17 1.18 20.52 Z" />
<path fill="#000000" opacity="1.00" d=" M 6.68 32.57 C 17.78 32.54 28.89 32.59 39.99 32.53 C 41.68 32.44 43.35 32.78 44.67 33.89 C 32.04 34.54 19.37 33.98 6.72 34.18 L 6.68 32.57 Z" />
<path fill="#000000" opacity="1.00" d=" M 43.83 37.12 C 45.22 35.27 46.44 33.28 48.07 31.61 C 53.38 29.84 59.03 35.61 57.83 40.90 C 56.47 42.84 54.27 43.93 52.47 45.41 C 52.85 40.59 48.77 36.29 43.83 37.12 Z" />
<path fill="#000000" opacity="1.00" d=" M 72.73 31.36 C 73.04 32.24 73.66 34.00 73.97 34.89 C 74.29 34.00 74.94 32.23 75.27 31.34 C 75.80 31.33 76.86 31.31 77.40 31.31 C 77.37 31.87 77.32 33.00 77.29 33.57 C 78.52 33.79 79.75 34.01 80.98 34.24 C 80.87 35.19 80.75 36.13 80.62 37.07 C 78.46 36.83 76.28 36.69 74.11 36.65 C 75.89 40.57 82.61 41.02 81.87 46.05 C 81.70 48.53 79.05 49.43 77.29 50.61 C 77.27 51.19 77.24 52.34 77.22 52.91 C 76.59 52.91 75.33 52.91 74.71 52.90 C 74.72 52.36 74.76 51.26 74.78 50.72 C 72.45 50.04 69.30 49.75 70.50 46.44 C 73.32 47.13 76.32 47.72 78.90 45.95 C 76.53 43.90 73.42 42.96 71.09 40.88 C 69.43 38.87 71.11 36.43 72.10 34.57 C 72.26 33.76 72.57 32.16 72.73 31.36 Z" />
<path fill="#000000" opacity="1.00" d=" M 44.55 38.32 C 47.96 37.49 50.82 40.98 51.30 44.06 C 50.08 46.25 48.38 48.12 46.90 50.13 C 42.48 49.91 38.48 51.75 34.95 54.23 C 37.00 51.03 37.89 47.36 38.74 43.71 C 40.41 41.66 42.37 39.81 44.55 38.32 M 44.09 43.47 C 43.55 45.08 44.10 45.65 45.74 45.17 C 46.28 43.56 45.73 42.99 44.09 43.47 Z" />
<path fill="#000000" opacity="1.00" d=" M 5.89 45.53 C 8.74 43.22 12.64 44.51 15.99 44.20 C 23.25 44.62 30.68 43.31 37.80 45.05 C 33.65 46.29 29.28 45.77 25.02 45.85 C 18.65 45.71 12.25 46.16 5.89 45.53 Z" />
<path fill="#000000" opacity="1.00" d=" M 6.07 56.08 C 29.36 55.62 52.67 56.08 75.97 55.85 C 78.44 55.89 81.10 55.60 83.24 57.15 C 81.51 57.45 79.76 57.61 78.00 57.63 C 55.33 57.61 32.65 57.59 9.97 57.65 C 8.54 57.61 6.85 57.65 6.07 56.08 Z" />
</g>
</svg>
