<?xml version="1.0" encoding="UTF-8" ?>
<!DOCTYPE svg PUBLIC "-//W3C//DTD SVG 1.1//EN" "http://www.w3.org/Graphics/SVG/1.1/DTD/svg11.dtd">
<svg width="49pt" height="33pt" viewBox="0 0 49 33" version="1.1" xmlns="http://www.w3.org/2000/svg">
<g id="#000000ff">
<path fill="#000000" opacity="1.00" d=" M 18.11 6.84 C 20.47 3.76 23.85 1.00 27.96 1.25 C 32.12 1.00 35.47 3.92 37.88 6.97 C 38.05 8.54 38.18 10.12 38.36 11.70 C 38.82 10.91 39.22 10.09 39.66 9.30 C 39.73 10.52 39.77 11.73 39.78 12.95 C 44.40 13.39 48.40 17.33 48.67 22.00 C 49.08 27.37 44.30 32.28 38.99 32.39 C 29.68 32.55 20.37 32.46 11.06 32.44 C 5.48 32.68 0.01 27.78 0.43 22.06 C 0.68 17.69 4.16 14.08 8.33 13.06 C 8.40 10.52 9.41 7.97 11.72 6.68 C 13.81 6.01 16.00 6.60 18.11 6.84 Z" />
</g>
</svg>
