<?xml version="1.0" encoding="UTF-8" ?>
<!DOCTYPE svg PUBLIC "-//W3C//DTD SVG 1.1//EN" "http://www.w3.org/Graphics/SVG/1.1/DTD/svg11.dtd">
<svg width="49pt" height="33pt" viewBox="0 0 49 33" version="1.1" xmlns="http://www.w3.org/2000/svg">
<g id="#000000ff">
<path fill="#000000" opacity="1.00" d=" M 8.82 6.49 C 9.11 5.22 9.08 2.88 10.97 3.05 C 20.68 2.86 30.41 3.15 40.12 2.92 C 40.50 4.14 40.88 5.36 41.21 6.59 C 35.93 10.45 30.89 14.72 24.98 17.64 C 19.12 14.65 14.07 10.40 8.82 6.49 Z" />
<path fill="#000000" opacity="1.00" d=" M 9.04 10.72 C 14.17 14.50 19.22 18.48 24.98 21.27 C 30.81 18.57 35.84 14.51 40.96 10.69 C 40.84 16.12 41.09 21.55 40.90 26.97 C 40.97 28.37 39.42 29.55 38.09 29.42 C 30.07 29.53 22.05 29.36 14.03 29.48 C 12.30 29.46 10.04 29.71 9.17 27.79 C 8.81 22.11 9.18 16.41 9.04 10.72 Z" />
</g>
</svg>
