<?xml version="1.0" encoding="UTF-8" ?>
<!DOCTYPE svg PUBLIC "-//W3C//DTD SVG 1.1//EN" "http://www.w3.org/Graphics/SVG/1.1/DTD/svg11.dtd">
<svg width="85pt" height="86pt" viewBox="0 0 85 86" version="1.1" xmlns="http://www.w3.org/2000/svg">
<g id="#000000ff">
<path fill="#000000" opacity="1.00" d=" M 39.24 0.00 L 49.71 0.00 C 56.57 1.05 63.73 2.85 68.95 7.72 C 74.12 7.86 79.31 7.76 84.47 8.32 C 85.46 17.91 81.16 26.80 78.36 35.71 C 75.15 35.68 71.94 35.66 68.73 35.59 C 69.98 30.95 71.60 26.43 72.74 21.76 C 52.70 21.65 32.66 21.77 12.62 21.70 C 12.44 22.14 12.06 23.03 11.87 23.47 C 13.37 27.45 14.73 31.49 15.89 35.58 C 12.53 35.66 9.17 35.67 5.80 35.61 C 4.04 29.44 1.99 23.35 0.00 17.24 L 0.00 8.36 C 5.00 7.68 10.04 7.92 15.07 7.85 C 17.49 8.04 19.27 6.18 21.22 5.07 C 26.56 1.60 33.01 0.51 39.24 0.00 Z" />
<path fill="#000000" opacity="1.00" d=" M 41.80 25.29 C 42.29 25.31 43.28 25.37 43.77 25.40 C 44.64 28.09 46.04 30.75 49.29 30.82 C 49.27 31.41 49.24 32.60 49.23 33.20 C 48.43 33.29 46.85 33.46 46.06 33.55 C 44.87 35.71 43.90 37.97 42.99 40.25 C 41.58 37.12 40.38 32.98 36.21 32.98 C 36.21 32.44 36.20 31.36 36.19 30.81 C 37.60 30.34 38.99 29.86 40.39 29.38 C 40.86 28.01 41.33 26.65 41.80 25.29 Z" />
<path fill="#000000" opacity="1.00" d=" M 29.92 29.82 C 30.60 31.18 31.24 32.56 31.88 33.93 C 33.02 34.64 34.14 35.37 35.24 36.14 C 34.49 36.50 33.01 37.23 32.26 37.60 C 31.51 38.35 30.81 39.15 30.17 40.00 C 28.84 38.48 27.25 37.24 25.26 36.73 C 25.35 36.24 25.53 35.27 25.61 34.78 C 26.26 34.64 27.54 34.36 28.18 34.21 C 28.76 32.75 29.34 31.29 29.92 29.82 Z" />
<path fill="#000000" opacity="1.00" d=" M 53.35 34.07 C 53.92 33.14 54.48 32.21 55.02 31.27 C 56.84 32.86 58.67 34.45 59.98 36.50 C 58.49 38.01 56.52 38.85 54.90 40.19 C 54.55 39.50 53.85 38.10 53.50 37.41 C 52.68 37.33 51.04 37.19 50.22 37.12 C 50.67 35.53 51.96 34.71 53.35 34.07 Z" />
<path fill="#000000" opacity="1.00" d=" M 2.53 44.62 C 29.17 44.41 55.81 44.41 82.45 44.61 C 82.40 54.80 82.67 65.00 82.38 75.19 C 81.89 81.68 75.31 85.35 69.45 86.00 L 19.61 86.00 C 15.88 85.22 11.57 86.00 8.25 83.72 C 4.57 81.54 2.28 77.32 2.50 73.04 C 2.53 63.57 2.50 54.09 2.53 44.62 M 37.44 54.79 C 37.41 56.60 37.39 58.41 37.38 60.22 C 38.17 61.06 38.97 61.89 39.76 62.73 C 39.55 64.38 39.34 66.04 39.14 67.69 C 41.64 67.71 44.14 67.70 46.63 67.67 C 46.35 66.10 46.05 64.54 45.74 62.98 C 47.03 60.94 49.37 58.63 48.10 56.04 C 47.43 53.59 44.95 52.64 42.97 51.48 C 41.08 52.50 39.22 53.59 37.44 54.79 Z" />
</g>
</svg>
