<?xml version="1.0" encoding="UTF-8" ?>
<!DOCTYPE svg PUBLIC "-//W3C//DTD SVG 1.1//EN" "http://www.w3.org/Graphics/SVG/1.1/DTD/svg11.dtd">
<svg width="113pt" height="86pt" viewBox="0 0 113 86" version="1.1" xmlns="http://www.w3.org/2000/svg">
<g id="#000000ff">
<path fill="#000000" opacity="1.00" d=" M 12.27 0.00 L 12.76 0.00 C 16.66 2.72 21.25 5.20 26.06 5.73 C 46.05 5.76 66.05 5.75 86.04 5.74 C 91.00 5.70 95.01 1.79 99.80 1.29 C 104.10 5.91 107.43 11.40 111.65 16.12 C 111.68 16.47 111.74 17.16 111.77 17.50 C 107.33 20.17 103.31 23.46 98.69 25.82 C 98.22 45.87 98.62 65.94 98.49 86.00 L 13.54 86.00 C 13.38 65.95 13.85 45.88 13.30 25.85 C 8.78 23.06 4.38 20.08 0.00 17.06 L 0.00 15.93 L 0.54 16.72 C 4.06 10.89 9.61 6.25 12.27 0.00 M 27.74 10.93 C 27.12 15.43 27.26 20.04 27.66 24.55 C 28.49 25.52 29.85 25.49 30.76 26.39 C 47.58 26.29 64.42 26.28 81.24 26.40 C 81.56 26.19 82.18 25.76 82.49 25.55 C 84.94 25.52 84.62 22.69 84.75 20.99 C 84.38 17.20 85.74 12.92 83.24 9.65 C 66.83 9.15 50.39 9.58 33.97 9.43 C 31.83 9.51 29.27 9.09 27.74 10.93 M 18.76 26.61 C 18.57 27.83 17.85 28.59 16.62 28.86 C 16.93 31.20 16.10 33.70 17.26 35.86 C 17.17 49.23 17.27 62.60 17.21 75.98 C 17.05 77.52 17.48 79.02 17.65 80.55 C 18.64 81.83 20.45 81.57 21.87 82.01 C 44.61 81.99 67.35 81.99 90.09 82.01 C 91.42 81.78 92.80 81.60 94.07 81.09 C 95.51 77.58 94.86 73.72 95.00 70.04 C 95.11 56.29 94.69 42.50 95.40 28.79 C 94.17 28.58 93.43 27.86 93.17 26.63 C 92.31 26.62 90.59 26.59 89.73 26.57 C 89.04 27.58 88.70 28.68 88.71 29.88 C 85.16 29.41 81.57 29.78 78.01 29.66 C 59.73 29.78 41.43 29.42 23.17 29.85 C 24.44 27.14 20.77 26.26 18.76 26.61 Z" />
<path fill="#000000" opacity="1.00" d=" M 38.32 38.49 C 42.31 37.33 46.77 40.90 46.67 44.97 C 46.86 49.58 41.19 53.37 37.07 51.00 C 35.38 49.78 33.50 48.14 33.38 45.91 C 32.73 42.61 35.37 39.49 38.32 38.49 Z" />
<path fill="#000000" opacity="1.00" d=" M 68.37 38.48 C 72.68 37.25 77.45 41.54 76.60 45.94 C 76.09 50.99 68.72 53.93 65.39 49.60 C 61.31 46.38 63.73 39.65 68.37 38.48 Z" />
<path fill="#000000" opacity="1.00" d=" M 33.99 63.33 C 48.64 63.31 63.30 63.36 77.95 63.31 C 77.95 63.65 77.95 64.35 77.94 64.70 C 63.33 64.66 48.72 64.63 34.10 64.71 C 34.08 64.37 34.02 63.68 33.99 63.33 Z" />
<path fill="#000000" opacity="1.00" d=" M 34.20 67.30 C 48.79 67.36 63.38 67.33 77.97 67.31 C 77.96 67.66 77.94 68.35 77.93 68.70 C 63.33 68.64 48.73 68.67 34.13 68.68 C 34.14 68.34 34.18 67.65 34.20 67.30 Z" />
</g>
</svg>
