<?xml version="1.0" encoding="UTF-8" ?>
<!DOCTYPE svg PUBLIC "-//W3C//DTD SVG 1.1//EN" "http://www.w3.org/Graphics/SVG/1.1/DTD/svg11.dtd">
<svg width="49pt" height="33pt" viewBox="0 0 49 33" version="1.1" xmlns="http://www.w3.org/2000/svg">
<g id="#000000ff">
<path fill="#000000" opacity="1.00" d=" M 29.05 0.00 L 29.44 0.00 C 33.70 0.01 37.00 4.45 35.49 8.51 C 34.11 13.41 26.35 14.06 24.21 9.43 C 21.94 5.61 24.74 0.54 29.05 0.00 Z" />
<path fill="#000000" opacity="1.00" d=" M 14.54 3.64 C 18.10 1.69 22.72 5.00 21.79 9.02 C 21.32 13.48 14.50 14.34 12.57 10.50 C 11.74 8.10 12.09 4.95 14.54 3.64 Z" />
<path fill="#000000" opacity="1.00" d=" M 8.09 18.02 C 11.00 13.84 16.53 13.04 21.21 13.93 C 19.28 16.74 16.42 18.94 15.28 22.25 C 14.29 24.41 14.54 26.82 14.46 29.12 C 13.71 28.91 12.22 28.50 11.47 28.29 C 9.84 24.90 9.98 21.03 11.62 17.67 C 9.96 20.64 9.28 23.95 9.62 27.34 C 8.71 27.37 6.90 27.42 5.99 27.44 C 5.97 24.21 5.74 20.59 8.09 18.02 Z" />
<path fill="#000000" opacity="1.00" d=" M 19.25 18.13 C 24.78 11.37 36.71 12.28 41.32 19.64 C 43.77 22.79 44.02 26.89 43.74 30.71 C 42.19 30.79 40.64 30.76 39.09 30.66 C 39.31 27.40 39.16 24.14 38.98 20.89 C 38.12 24.59 38.95 29.47 35.71 32.16 C 31.70 33.24 27.28 33.25 23.28 32.09 C 20.13 28.62 20.99 23.02 22.53 18.95 C 20.39 22.48 20.10 26.61 20.33 30.64 C 18.61 30.69 16.88 30.69 15.16 30.51 C 15.20 26.07 15.91 21.37 19.25 18.13 Z" />
</g>
</svg>
