<?xml version="1.0" encoding="UTF-8" ?>
<!DOCTYPE svg PUBLIC "-//W3C//DTD SVG 1.1//EN" "http://www.w3.org/Graphics/SVG/1.1/DTD/svg11.dtd">
<svg width="49pt" height="33pt" viewBox="0 0 49 33" version="1.1" xmlns="http://www.w3.org/2000/svg">
<g id="#000000ff">
<path fill="#000000" opacity="1.00" d=" M 9.02 4.61 C 15.21 3.39 21.41 2.18 27.61 1.01 C 27.37 11.34 27.37 21.68 27.60 32.02 C 21.27 32.15 15.21 30.09 9.03 29.02 C 9.05 20.88 9.08 12.74 9.02 4.61 M 17.48 11.48 C 12.82 12.97 12.93 21.63 17.99 22.49 C 24.47 22.78 24.13 10.17 17.48 11.48 Z" />
<path fill="#000000" opacity="1.00" d=" M 28.88 7.75 C 32.76 7.75 36.64 7.68 40.52 7.87 C 38.43 11.54 34.13 12.96 30.98 15.53 C 30.45 15.16 29.41 14.41 28.89 14.03 C 28.88 11.94 28.88 9.84 28.88 7.75 Z" />
<path fill="#000000" opacity="1.00" d=" M 31.05 17.72 C 34.17 16.04 36.97 13.84 39.95 11.95 C 39.95 16.20 39.96 20.45 39.95 24.71 C 36.26 24.81 32.58 24.77 28.90 24.78 C 28.90 22.00 28.88 19.22 28.76 16.44 C 29.33 16.76 30.48 17.40 31.05 17.72 Z" />
<path fill="#000000" opacity="1.00" d=" M 17.22 14.02 C 20.87 11.22 22.31 20.41 18.09 20.53 C 15.77 19.39 15.54 15.78 17.22 14.02 Z" />
</g>
</svg>
