<?xml version="1.0" encoding="UTF-8" ?>
<!DOCTYPE svg PUBLIC "-//W3C//DTD SVG 1.1//EN" "http://www.w3.org/Graphics/SVG/1.1/DTD/svg11.dtd">
<svg width="86pt" height="77pt" viewBox="0 0 86 77" version="1.1" xmlns="http://www.w3.org/2000/svg">
<g id="#000000ff">
<path fill="#000000" opacity="1.00" d=" M 36.73 0.00 L 43.55 0.00 C 47.85 1.01 50.94 5.37 55.62 4.76 C 55.30 9.52 56.49 14.25 55.84 19.00 C 55.32 22.25 57.62 25.41 56.29 28.60 C 55.85 30.67 54.19 32.04 52.48 33.09 C 52.13 37.51 52.32 41.94 52.19 46.36 C 55.39 50.18 60.53 51.06 64.75 53.28 C 70.35 56.35 77.56 56.85 81.68 62.24 C 84.69 65.47 84.67 70.09 85.30 74.18 L 86.00 72.62 L 86.00 77.00 L 0.00 77.00 L 0.00 76.88 C 2.80 70.74 1.58 63.33 5.67 57.70 C 8.33 53.25 13.75 51.96 18.51 51.22 C 23.33 50.64 27.79 48.65 32.34 47.06 C 32.40 46.31 32.52 44.80 32.58 44.05 C 30.59 41.38 29.72 38.13 29.14 34.90 C 28.41 34.31 27.68 33.71 26.95 33.11 C 26.33 27.17 25.43 21.25 25.14 15.28 C 23.83 15.29 22.52 15.30 21.21 15.32 C 24.53 9.15 28.93 1.58 36.80 1.26 L 36.73 0.00 Z" />
</g>
</svg>
