<?xml version="1.0" encoding="UTF-8" ?>
<!DOCTYPE svg PUBLIC "-//W3C//DTD SVG 1.1//EN" "http://www.w3.org/Graphics/SVG/1.1/DTD/svg11.dtd">
<svg width="49pt" height="33pt" viewBox="0 0 49 33" version="1.1" xmlns="http://www.w3.org/2000/svg">
<g id="#000000ff">
<path fill="#000000" opacity="1.00" d=" M 11.61 3.57 C 15.39 -0.65 21.27 1.66 26.07 1.94 C 31.14 2.13 35.81 5.31 38.20 9.72 C 40.39 13.46 39.63 17.97 40.76 22.02 C 42.20 26.65 39.17 31.50 34.74 33.00 L 29.51 33.00 C 25.53 31.43 20.89 32.25 17.23 29.81 C 13.12 27.36 10.18 22.87 10.02 18.03 C 9.79 13.21 7.37 7.39 11.61 3.57 M 20.77 8.86 C 18.27 9.84 16.93 13.25 18.58 15.51 C 20.88 18.91 26.43 17.04 28.38 20.83 C 27.13 21.70 25.83 22.97 24.15 22.58 C 21.78 22.50 20.67 18.56 18.20 20.08 C 18.12 20.55 17.95 21.48 17.86 21.95 C 20.11 25.76 25.65 26.27 29.27 24.30 C 32.21 22.80 32.49 18.00 29.53 16.37 C 26.80 14.90 23.37 15.15 20.96 13.01 C 22.39 10.62 25.69 10.47 27.53 12.42 C 28.61 14.15 31.39 13.42 31.00 11.28 C 28.84 8.00 24.18 7.44 20.77 8.86 Z" />
</g>
</svg>
