<?xml version="1.0" encoding="UTF-8" ?>
<!DOCTYPE svg PUBLIC "-//W3C//DTD SVG 1.1//EN" "http://www.w3.org/Graphics/SVG/1.1/DTD/svg11.dtd">
<svg width="55pt" height="56pt" viewBox="0 0 55 56" version="1.1" xmlns="http://www.w3.org/2000/svg">
<g id="#000000ff">
<path fill="#000000" opacity="1.00" d=" M 25.91 0.00 L 28.69 0.00 C 32.68 0.18 36.84 0.46 40.43 2.40 C 42.31 3.26 43.99 4.61 46.03 5.08 C 48.90 5.44 51.80 5.26 54.69 5.31 C 54.98 11.63 52.72 17.59 50.57 23.40 C 48.52 23.35 46.46 23.31 44.41 23.25 C 45.29 20.30 46.18 17.36 47.04 14.40 C 33.87 14.34 20.70 14.33 7.53 14.41 C 8.47 17.36 9.36 20.32 10.19 23.30 C 8.08 23.31 5.97 23.31 3.86 23.31 C 2.59 19.15 1.16 15.04 0.00 10.85 L 0.00 5.36 C 3.61 5.25 7.23 5.23 10.84 5.15 C 15.16 1.81 20.49 0.21 25.91 0.00 Z" />
<path fill="#000000" opacity="1.00" d=" M 25.93 19.22 C 26.50 18.17 27.07 17.12 27.63 16.07 C 28.70 17.62 29.86 19.15 31.45 20.21 C 31.55 20.40 31.75 20.77 31.85 20.96 C 29.78 22.12 28.41 23.93 27.83 26.23 C 27.28 25.03 26.72 23.83 26.17 22.62 C 25.11 22.12 24.05 21.61 22.99 21.11 C 23.18 20.81 23.56 20.20 23.74 19.90 C 24.29 19.73 25.38 19.39 25.93 19.22 Z" />
<path fill="#000000" opacity="1.00" d=" M 16.13 23.40 C 17.41 22.49 18.47 21.34 19.14 19.90 C 20.22 21.09 21.35 22.23 22.50 23.36 C 21.58 24.21 20.66 25.06 19.74 25.92 C 18.54 25.08 17.34 24.24 16.13 23.40 Z" />
<path fill="#000000" opacity="1.00" d=" M 32.51 23.29 C 33.70 22.38 34.87 21.44 36.03 20.50 C 36.97 21.41 37.92 22.32 38.87 23.23 C 37.94 24.17 37.02 25.11 36.09 26.06 C 34.91 25.12 33.71 24.20 32.51 23.29 Z" />
<path fill="#000000" opacity="1.00" d=" M 1.55 29.17 C 10.32 28.38 19.14 28.94 27.94 28.78 C 36.43 28.90 44.94 28.41 53.42 29.16 C 53.24 35.80 53.66 42.45 53.27 49.08 C 52.84 53.50 48.15 55.76 44.19 56.00 L 14.54 56.00 C 12.77 55.83 9.21 55.48 7.44 55.31 C 4.18 54.57 1.62 51.46 1.65 48.10 C 1.47 41.80 1.72 35.48 1.55 29.17 M 24.61 35.49 C 23.57 37.39 24.63 39.35 25.49 41.07 C 25.45 41.88 25.38 43.50 25.34 44.32 C 26.84 44.32 28.33 44.32 29.82 44.33 C 29.81 43.50 29.79 41.85 29.78 41.03 C 30.36 39.70 31.47 38.48 31.38 36.94 C 30.77 35.32 29.18 34.39 28.01 33.21 C 26.87 33.95 25.65 34.60 24.61 35.49 Z" />
</g>
</svg>
