<?xml version="1.0" encoding="UTF-8" ?>
<!DOCTYPE svg PUBLIC "-//W3C//DTD SVG 1.1//EN" "http://www.w3.org/Graphics/SVG/1.1/DTD/svg11.dtd">
<svg width="75pt" height="57pt" viewBox="0 0 75 57" version="1.1" xmlns="http://www.w3.org/2000/svg">
<g id="#000000ff">
<path fill="#000000" opacity="1.00" d=" M 7.07 0.00 L 59.84 0.00 C 61.42 0.20 64.57 0.61 66.15 0.82 C 67.24 1.75 68.07 2.93 68.80 4.16 C 48.21 4.30 27.62 4.11 7.03 4.25 C 5.28 4.13 5.22 6.74 7.05 6.57 C 28.04 6.68 49.04 6.58 70.03 6.61 C 72.17 6.48 74.29 7.78 75.00 9.83 L 75.00 24.40 C 70.77 24.75 65.06 23.00 62.38 27.40 C 60.64 31.14 60.62 36.92 64.60 39.28 C 67.85 40.82 71.55 39.94 75.00 40.15 L 75.00 54.72 C 74.03 55.25 73.36 56.01 72.98 57.00 L 3.07 57.00 C 1.90 55.99 0.99 54.74 0.00 53.57 L 0.00 8.02 C -0.76 3.57 2.57 -0.32 7.07 0.00 Z" />
<path fill="#000000" opacity="1.00" d=" M 64.46 29.38 C 66.54 25.64 71.57 27.78 75.00 27.23 L 75.00 37.27 C 72.06 37.15 69.07 37.56 66.17 37.02 C 63.47 35.44 64.27 31.96 64.46 29.38 M 69.24 30.29 C 66.54 32.79 70.90 36.89 73.31 34.34 C 76.34 31.99 71.80 27.24 69.24 30.29 Z" />
</g>
</svg>
