<?xml version="1.0" encoding="UTF-8" ?>
<!DOCTYPE svg PUBLIC "-//W3C//DTD SVG 1.1//EN" "http://www.w3.org/Graphics/SVG/1.1/DTD/svg11.dtd">
<svg width="889pt" height="252pt" viewBox="0 0 889 252" version="1.1" xmlns="http://www.w3.org/2000/svg">
<g id="#0000007e">
<path fill="#000000" opacity="0.49" d=" M 821.00 0.00 L 871.09 0.00 L 870.14 0.87 C 854.07 1.08 837.99 1.09 821.93 0.87 L 821.00 0.00 Z" />
</g>
<g id="#000000ff">
<path fill="#000000" opacity="1.00" d=" M 818.28 0.47 C 831.56 21.43 843.90 43.00 857.02 64.06 C 852.32 62.15 847.18 60.82 842.10 61.86 C 838.03 62.44 834.51 64.62 831.06 66.69 C 821.84 50.03 812.32 33.53 803.05 16.89 C 808.24 11.52 813.23 5.96 818.28 0.47 Z" />
<path fill="#000000" opacity="1.00" d=" M 821.93 0.87 C 837.99 1.09 854.07 1.08 870.14 0.87 C 866.63 7.00 862.80 12.94 859.01 18.88 C 850.36 18.82 841.71 18.85 833.07 18.87 C 829.29 12.91 825.47 6.97 821.93 0.87 Z" />
<path fill="#000000" opacity="1.00" d=" M 873.48 0.38 C 878.84 5.68 883.68 11.47 889.00 16.80 L 889.00 16.90 C 879.94 33.04 870.41 48.92 861.65 65.24 C 857.08 57.78 852.44 50.36 847.76 42.97 C 856.25 28.72 864.99 14.63 873.48 0.38 Z" />
<path fill="#000000" opacity="1.00" d=" M 237.56 10.57 C 242.74 13.05 248.06 16.28 254.03 15.77 C 273.05 15.69 292.08 15.80 311.11 15.72 C 316.07 15.70 320.00 11.70 324.83 11.37 C 327.70 14.12 329.76 17.60 332.28 20.66 C 333.86 22.93 336.05 24.85 336.95 27.53 C 332.33 30.02 328.32 33.48 323.65 35.89 C 323.35 55.81 323.44 75.74 323.60 95.67 C 295.21 95.57 266.81 95.60 238.42 95.65 C 238.56 75.72 238.71 55.78 238.35 35.85 C 233.78 33.12 229.40 30.06 224.98 27.08 C 229.21 21.60 233.62 16.25 237.56 10.57 M 252.79 19.74 C 252.20 24.66 252.29 29.62 252.55 34.55 C 254.17 35.60 255.93 36.58 257.94 36.35 C 273.63 36.29 289.32 36.38 305.01 36.30 C 306.69 36.41 308.07 35.34 309.49 34.60 C 309.86 29.67 309.92 24.70 309.25 19.79 C 303.83 19.22 298.38 19.48 292.94 19.43 C 279.56 19.60 266.16 19.07 252.79 19.74 M 244.16 36.66 C 243.35 37.52 242.52 38.36 241.69 39.20 C 242.53 51.44 242.15 63.73 242.23 76.01 C 242.30 81.08 241.88 86.19 242.76 91.22 C 244.81 91.61 246.87 92.01 248.98 92.01 C 270.31 91.99 291.64 91.99 312.98 92.01 C 314.99 91.92 317.20 92.06 318.99 90.96 C 319.96 89.50 319.84 87.61 319.99 85.92 C 320.11 70.33 319.74 54.73 320.31 39.15 C 319.47 38.33 318.65 37.49 317.84 36.63 C 315.53 36.25 313.65 37.36 313.48 39.77 C 291.82 39.60 270.15 39.58 248.48 39.78 C 248.35 37.32 246.54 36.10 244.16 36.66 Z" />
<path fill="#000000" opacity="1.00" d=" M 564.20 14.35 C 573.37 9.65 584.05 9.62 594.08 10.46 C 600.21 11.36 606.29 13.53 611.00 17.65 C 615.80 18.11 620.66 17.80 625.49 17.77 C 625.61 22.29 625.64 26.83 624.86 31.30 C 624.10 34.94 622.74 38.42 621.77 42.01 C 621.36 43.29 621.07 44.82 619.85 45.59 C 616.91 45.82 613.96 45.65 611.03 45.68 C 611.40 40.83 613.99 36.55 614.74 31.77 C 596.52 31.00 578.24 31.72 560.00 31.41 C 557.82 31.53 555.37 30.99 553.52 32.42 C 555.03 36.78 556.76 41.08 557.80 45.59 C 554.44 45.71 551.07 45.72 547.71 45.54 C 545.78 36.32 540.02 27.45 542.56 17.75 C 547.68 17.91 552.81 17.91 557.94 17.83 C 560.51 17.86 562.00 15.34 564.20 14.35 Z" />
<path fill="#000000" opacity="1.00" d=" M 79.10 20.33 C 83.95 16.66 91.77 24.29 87.48 28.92 C 86.25 24.84 82.78 22.13 79.10 20.33 Z" />
<path fill="#000000" opacity="1.00" d=" M 74.70 22.71 C 80.77 19.06 88.87 27.46 85.33 33.39 C 79.24 44.94 68.69 53.00 58.67 60.94 C 60.43 54.50 54.20 47.95 47.70 49.39 C 55.12 39.12 63.51 29.01 74.70 22.71 M 79.21 26.20 C 73.77 32.45 68.00 38.43 61.70 43.83 C 59.98 45.18 62.84 48.07 64.21 46.35 C 69.46 40.23 75.13 34.48 81.26 29.24 C 82.89 27.98 81.04 25.32 79.21 26.20 Z" />
<path fill="#000000" opacity="1.00" d=" M 583.62 35.53 C 584.15 35.45 585.19 35.29 585.71 35.21 C 586.30 38.10 588.13 40.24 591.03 40.96 C 591.10 41.52 591.24 42.63 591.31 43.19 C 590.15 43.36 589.00 43.53 587.85 43.69 C 586.77 45.81 585.86 48.01 585.00 50.22 C 584.01 48.38 583.23 46.45 582.29 44.60 C 581.32 43.30 579.51 43.48 578.12 43.05 C 578.18 42.46 578.29 41.26 578.35 40.66 C 579.70 40.26 581.05 39.83 582.41 39.41 C 582.80 38.12 583.21 36.82 583.62 35.53 Z" />
<path fill="#000000" opacity="1.00" d=" M 1.34 39.51 C 3.41 38.53 5.78 38.73 8.01 38.67 C 23.30 38.83 38.60 38.58 53.90 38.81 C 52.50 40.13 51.36 42.38 49.07 41.92 C 33.82 42.01 18.56 41.70 3.31 42.07 C 3.40 55.73 3.39 69.39 3.39 83.04 C 30.80 83.17 58.21 83.21 85.61 83.03 C 85.60 69.42 85.61 55.81 85.69 42.20 C 84.35 42.03 83.01 41.85 81.67 41.67 C 83.17 40.39 84.55 37.32 86.80 39.16 C 88.87 39.78 88.78 42.23 88.88 43.96 C 88.84 57.01 88.98 70.06 88.74 83.10 C 89.00 85.33 86.84 86.13 84.99 85.93 C 60.33 85.94 35.67 85.91 11.00 85.94 C 7.33 85.84 3.41 86.54 0.00 84.79 L 0.00 84.47 C 0.43 70.98 -0.11 57.48 0.15 43.98 C 0.26 42.45 0.17 40.70 1.34 39.51 Z" />
<path fill="#000000" opacity="1.00" d=" M 571.82 39.93 C 572.53 41.30 573.23 42.68 573.96 44.05 C 575.42 44.39 576.57 45.12 576.68 46.76 C 574.64 47.04 573.33 48.55 572.02 49.96 C 570.79 48.32 569.13 47.16 567.17 46.61 C 567.30 46.15 567.57 45.23 567.70 44.77 C 568.31 44.64 569.53 44.39 570.14 44.26 C 570.69 42.82 571.25 41.37 571.82 39.93 Z" />
<path fill="#000000" opacity="1.00" d=" M 595.38 44.18 C 595.92 43.20 596.46 42.22 597.01 41.24 C 598.45 42.49 599.60 44.16 601.48 44.80 C 601.56 45.29 601.72 46.29 601.80 46.79 C 601.26 46.99 600.18 47.38 599.64 47.57 C 599.41 48.10 598.96 49.15 598.74 49.68 C 598.21 49.67 597.16 49.67 596.63 49.67 C 596.36 49.16 595.82 48.13 595.55 47.62 C 594.19 47.38 593.00 46.82 591.98 45.93 C 593.10 45.33 594.24 44.75 595.38 44.18 Z" />
<path fill="#000000" opacity="1.00" d=" M 263.36 48.48 C 267.98 47.17 272.87 52.06 271.50 56.69 C 270.59 59.34 268.00 61.80 265.04 61.67 C 260.44 61.88 256.64 56.22 258.99 52.10 C 260.04 50.53 261.47 48.98 263.36 48.48 Z" />
<path fill="#000000" opacity="1.00" d=" M 293.31 48.49 C 297.93 47.16 302.86 52.01 301.51 56.65 C 300.60 59.34 297.98 61.85 294.97 61.67 C 290.37 61.84 286.61 56.14 289.03 52.05 C 290.07 50.52 291.46 49.00 293.31 48.49 Z" />
<path fill="#000000" opacity="1.00" d=" M 6.18 53.03 C 6.80 51.89 7.74 51.39 9.00 51.54 C 20.64 51.58 32.28 51.56 43.92 51.56 C 43.97 53.76 41.41 53.03 40.00 53.20 C 28.73 53.06 17.45 53.35 6.18 53.03 Z" />
<path fill="#000000" opacity="1.00" d=" M 43.93 56.31 C 45.24 54.36 46.35 52.25 48.03 50.58 C 53.36 48.86 59.05 54.63 57.83 59.89 C 56.56 61.95 54.12 62.91 52.28 64.39 C 53.14 59.73 48.65 55.07 43.93 56.31 Z" />
<path fill="#000000" opacity="1.00" d=" M 72.60 51.12 L 73.17 51.03 C 73.28 51.69 73.51 53.02 73.63 53.68 C 74.22 52.80 75.40 51.06 75.99 50.19 L 77.21 50.49 C 77.28 51.02 77.42 52.08 77.49 52.61 C 78.67 52.81 79.85 53.02 81.03 53.24 C 80.84 54.27 80.65 55.29 80.46 56.32 C 78.49 55.74 76.45 55.41 74.40 55.79 C 75.69 58.86 79.08 59.64 81.26 61.75 C 83.35 65.02 80.61 68.60 77.32 69.41 C 77.29 70.04 77.24 71.29 77.21 71.91 C 76.60 71.91 75.36 71.91 74.75 71.91 C 74.74 71.32 74.72 70.14 74.71 69.54 C 73.14 69.14 71.57 68.72 70.00 68.30 C 70.24 67.63 70.73 66.30 70.97 65.63 C 73.29 65.63 76.64 67.56 78.11 64.82 C 76.85 61.69 72.07 62.40 70.70 59.23 C 69.43 56.33 72.64 54.00 72.60 51.12 Z" />
<path fill="#000000" opacity="1.00" d=" M 544.59 54.65 C 571.20 54.41 597.84 54.34 624.45 54.67 C 624.49 64.46 624.49 74.24 624.49 84.03 C 624.54 87.56 622.59 90.95 619.75 92.98 C 616.49 96.01 611.91 93.49 608.01 94.24 C 589.07 94.07 570.11 94.49 551.17 94.12 C 546.93 92.34 544.19 87.54 544.50 82.99 C 544.61 73.54 544.40 64.09 544.59 54.65 M 579.81 64.89 C 578.98 66.61 579.48 68.59 579.47 70.42 C 579.99 70.87 581.04 71.77 581.56 72.23 C 581.11 74.16 580.10 76.17 580.78 78.17 C 583.21 78.73 585.78 78.77 588.23 78.30 C 589.14 76.06 588.59 73.47 588.80 71.10 C 591.94 68.53 590.04 63.51 586.57 62.36 C 584.08 60.91 581.41 63.10 579.81 64.89 Z" />
<path fill="#000000" opacity="1.00" d=" M 44.51 57.27 C 47.96 56.53 50.78 59.94 51.33 63.03 C 50.13 65.23 48.35 67.05 46.95 69.12 C 42.50 68.78 38.60 70.80 34.99 73.12 C 36.84 70.07 38.17 66.78 38.43 63.19 C 39.95 60.87 42.39 59.08 44.51 57.27 M 44.10 62.36 C 43.61 63.99 44.18 64.55 45.80 64.04 C 46.28 62.41 45.71 61.85 44.10 62.36 Z" />
<path fill="#000000" opacity="1.00" d=" M 841.16 64.25 C 848.65 62.28 857.05 65.13 862.03 71.00 C 866.68 76.38 868.37 84.22 866.09 90.99 C 863.45 99.86 854.31 106.26 845.05 105.57 C 834.39 105.41 824.85 95.76 825.12 85.03 C 824.57 75.42 831.84 66.29 841.16 64.25 M 842.41 67.57 C 833.69 69.22 827.33 78.22 828.69 86.99 C 829.73 96.13 838.91 103.27 848.02 102.01 C 857.13 101.17 864.55 92.27 863.50 83.13 C 862.88 73.02 852.27 65.16 842.41 67.57 Z" />
<path fill="#000000" opacity="1.00" d=" M 6.41 74.95 C 31.79 74.85 57.18 74.86 82.56 74.95 C 82.23 76.34 81.36 76.91 79.97 76.65 C 56.32 76.59 32.66 76.59 9.00 76.65 C 7.64 76.89 6.78 76.33 6.41 74.95 Z" />
<path fill="#000000" opacity="1.00" d=" M 842.85 83.00 C 845.66 82.21 847.90 80.45 849.94 78.42 C 853.10 77.93 853.75 82.05 851.26 83.43 C 848.64 82.25 846.00 83.53 843.60 84.56 C 844.89 85.70 846.49 86.37 848.08 87.00 C 848.88 86.81 850.48 86.43 851.28 86.24 C 852.63 87.34 853.82 89.76 851.78 90.86 C 850.54 92.23 848.99 90.80 848.19 89.78 C 846.88 88.06 844.69 87.54 842.82 86.69 C 842.07 86.91 840.56 87.35 839.81 87.56 C 837.77 86.06 837.74 83.69 839.79 82.19 C 840.56 82.39 842.08 82.80 842.85 83.00 Z" />
</g>
<g id="#0000009f">
<path fill="#000000" opacity="0.62" d=" M 625.49 17.77 C 627.22 18.95 626.65 21.26 626.83 23.04 C 626.67 25.83 626.95 29.11 624.86 31.30 C 625.64 26.83 625.61 22.29 625.49 17.77 Z" />
</g>
<g id="#0000007a">
<path fill="#000000" opacity="0.48" d=" M 553.52 32.42 C 555.37 30.99 557.82 31.53 560.00 31.41 C 578.24 31.72 596.52 31.00 614.74 31.77 C 612.68 32.94 610.27 32.46 608.04 32.52 C 589.86 32.40 571.68 32.62 553.52 32.42 Z" />
</g>
<g id="#0000004e">
<path fill="#000000" opacity="0.31" d=" M 44.10 62.36 C 45.71 61.85 46.28 62.41 45.80 64.04 C 44.18 64.55 43.61 63.99 44.10 62.36 Z" />
</g>
<g id="#000000d0">
<path fill="#000000" opacity="0.82" d=" M 6.98 63.13 C 16.77 62.96 26.58 62.99 36.37 63.11 C 36.40 63.57 36.46 64.47 36.49 64.93 C 26.49 65.11 16.48 64.96 6.47 64.99 C 6.60 64.52 6.85 63.60 6.98 63.13 Z" />
</g>
<g id="#0000008e">
<path fill="#000000" opacity="0.56" d=" M 588.07 77.43 C 587.84 75.31 586.91 72.77 588.80 71.10 C 588.59 73.47 589.14 76.06 588.23 78.30 C 585.78 78.77 583.21 78.73 580.78 78.17 C 580.10 76.17 581.11 74.16 581.56 72.23 C 581.72 73.97 581.70 75.72 581.75 77.47 C 583.85 77.46 585.95 77.44 588.07 77.43 Z" />
</g>
<g id="#000000bc">
<path fill="#000000" opacity="0.74" d=" M 842.43 72.60 C 849.94 69.94 858.95 76.07 859.21 84.04 C 859.95 91.32 853.17 98.04 845.95 97.64 C 840.10 97.70 834.71 93.26 833.42 87.60 C 831.75 81.25 836.30 74.41 842.43 72.60 M 842.26 74.35 C 838.84 75.53 836.05 78.42 835.15 81.94 C 833.69 87.34 836.64 93.27 841.88 95.25 C 848.89 98.39 857.90 92.75 857.65 84.95 C 858.01 77.20 849.32 71.66 842.26 74.35 Z" />
</g>
<g id="#000000ab">
<path fill="#000000" opacity="0.67" d=" M 259.00 73.01 C 273.66 72.99 288.33 73.00 303.00 73.01 C 303.00 73.50 303.00 74.49 303.01 74.99 C 288.34 75.00 273.67 75.01 259.00 74.99 C 259.00 74.49 259.00 73.50 259.00 73.01 Z" />
<path fill="#000000" opacity="0.67" d=" M 259.02 77.00 C 273.68 77.01 288.34 76.99 303.00 77.01 C 303.00 77.51 303.00 78.50 303.00 78.99 C 288.32 79.00 273.65 79.01 258.98 78.99 C 258.99 78.49 259.01 77.50 259.02 77.00 Z" />
</g>
<g id="#00000080">
<path fill="#000000" opacity="0.50" d=" M 551.92 95.01 C 568.61 94.70 585.31 94.99 602.00 94.89 C 606.74 95.09 611.64 94.28 616.27 95.54 C 611.86 96.25 607.38 95.97 602.94 96.00 C 589.96 96.01 576.98 96.00 564.00 96.01 C 559.96 95.96 555.80 96.43 551.92 95.01 Z" />
</g>
<g id="#ffffffff">
<path fill="#ffffff" opacity="1.00" d=" M 803.02 162.97 C 808.22 157.53 813.21 151.90 818.39 146.44 C 831.46 167.61 844.08 189.06 857.09 210.26 C 848.94 205.88 838.46 206.89 831.32 212.77 C 821.66 196.31 812.56 179.52 803.02 162.97 Z" />
<path fill="#ffffff" opacity="1.00" d=" M 821.49 146.53 C 837.87 146.49 854.24 146.49 870.62 146.53 C 866.61 152.56 862.99 158.84 859.01 164.88 C 850.33 164.80 841.66 164.89 832.99 164.84 C 829.16 158.73 825.42 152.57 821.49 146.53 Z" />
<path fill="#ffffff" opacity="1.00" d=" M 847.75 188.96 C 856.33 174.73 864.93 160.51 873.60 146.34 C 878.73 151.88 883.91 157.39 889.00 162.97 L 889.00 163.92 L 888.99 162.98 C 879.74 179.04 870.59 195.17 861.41 211.27 C 857.27 203.58 852.31 196.39 847.75 188.96 Z" />
<path fill="#ffffff" opacity="1.00" d=" M 237.27 157.58 C 237.32 157.23 237.42 156.55 237.48 156.20 C 238.02 156.56 239.11 157.28 239.66 157.64 L 239.28 158.32 C 240.66 158.12 241.85 158.43 242.84 159.27 C 243.31 159.51 244.24 160.01 244.71 160.26 C 245.82 160.36 246.85 160.71 247.80 161.29 C 254.15 162.22 260.61 161.54 267.00 161.75 C 283.22 161.54 299.47 162.19 315.67 161.38 L 315.45 160.09 C 315.95 160.22 316.96 160.48 317.46 160.61 C 317.53 160.33 317.69 159.76 317.77 159.47 C 319.37 159.01 320.97 158.47 322.65 158.29 L 322.51 157.18 C 323.03 157.28 324.08 157.46 324.60 157.55 L 324.62 156.10 C 325.44 158.64 327.85 160.15 328.79 162.61 L 329.85 162.46 C 329.74 162.91 329.51 163.83 329.40 164.28 C 330.66 164.39 331.44 165.07 331.75 166.31 C 331.99 166.55 332.46 167.04 332.70 167.29 C 333.72 168.16 334.34 169.30 334.67 170.61 L 335.65 170.33 L 335.39 171.55 C 335.77 171.58 336.55 171.64 336.93 171.66 C 336.93 173.17 336.19 174.24 334.81 174.78 C 332.82 176.15 330.71 177.33 328.75 178.74 C 327.51 179.77 326.21 180.93 324.46 180.61 L 324.78 181.84 L 323.55 181.32 C 323.49 201.44 323.36 221.57 323.61 241.68 C 295.21 241.57 266.82 241.57 238.43 241.68 C 238.64 221.55 238.57 201.42 238.45 181.29 L 237.33 181.92 L 237.53 180.69 C 235.50 180.74 234.15 179.05 232.44 178.27 L 232.64 177.32 L 231.24 177.82 L 231.67 176.63 C 229.63 176.91 228.20 175.41 226.81 174.20 C 226.30 173.93 225.28 173.41 224.76 173.14 C 225.61 172.23 226.45 171.31 227.28 170.38 C 228.12 168.83 229.17 167.41 230.51 166.25 L 230.43 165.43 L 231.43 165.65 L 231.49 164.55 L 232.35 164.35 C 232.74 162.65 233.69 161.16 235.12 160.15 C 235.81 159.27 236.53 158.42 237.27 157.58 M 253.27 165.57 L 253.87 166.91 L 252.58 166.25 C 252.48 171.04 251.98 175.90 252.73 180.66 C 253.66 181.33 254.70 181.80 255.69 182.38 C 272.56 182.30 289.44 182.30 306.31 182.37 C 307.29 181.79 308.37 181.35 309.29 180.65 C 310.17 175.92 309.70 171.04 309.41 166.27 L 308.14 166.82 L 308.74 165.56 C 290.25 165.35 271.76 165.34 253.27 165.57 M 243.69 182.61 C 243.55 183.87 242.84 184.57 241.56 184.70 C 242.87 201.06 241.87 217.51 242.31 233.91 C 242.44 235.00 242.59 236.09 242.77 237.18 C 244.48 237.49 246.19 237.99 247.95 238.00 C 269.61 238.02 291.26 237.97 312.92 238.02 C 315.04 238.10 317.13 237.63 319.20 237.21 C 320.46 232.56 319.89 227.72 320.00 222.97 C 320.12 210.21 319.67 197.44 320.44 184.70 C 319.17 184.57 318.46 183.88 318.31 182.61 C 317.29 182.61 315.26 182.60 314.24 182.60 L 314.91 183.94 L 313.25 183.35 C 313.46 183.94 313.87 185.11 314.07 185.70 C 292.02 185.64 269.97 185.63 247.93 185.71 C 248.13 185.12 248.55 183.94 248.75 183.35 L 247.10 183.95 L 247.76 182.60 C 246.74 182.60 244.70 182.61 243.69 182.61 Z" />
<path fill="#ffffff" opacity="1.00" d=" M 567.05 158.92 C 573.70 156.47 580.86 155.67 587.92 156.15 C 590.91 156.40 594.07 155.87 596.88 157.21 C 597.94 157.34 599.02 157.48 600.10 157.62 C 600.97 158.39 602.01 158.78 603.23 158.78 C 606.04 160.06 608.68 161.64 610.98 163.69 C 616.11 164.33 621.38 163.13 626.43 164.51 C 626.45 168.96 627.07 173.76 624.70 177.77 C 624.07 180.90 623.04 183.93 621.97 186.93 C 621.64 188.60 621.09 190.20 620.28 191.70 C 617.19 191.65 614.11 191.68 611.03 191.65 C 611.13 190.07 611.32 188.48 612.03 187.05 C 612.63 184.99 613.41 182.98 613.90 180.89 C 614.25 180.06 614.60 179.24 614.96 178.41 L 613.57 178.66 L 613.45 177.63 C 605.89 177.90 598.33 177.53 590.77 177.78 L 590.00 178.80 L 589.25 177.80 C 583.75 177.69 578.24 177.62 572.75 177.80 L 572.00 178.84 L 571.25 177.76 C 565.70 177.56 560.13 177.90 554.57 177.62 C 553.15 180.38 555.61 183.18 556.26 185.85 C 556.72 187.77 557.30 189.66 557.82 191.57 C 554.41 191.72 550.99 191.72 547.59 191.55 C 547.49 190.86 547.29 189.47 547.20 188.78 C 545.88 185.93 545.07 182.88 544.32 179.84 C 543.62 178.64 543.23 177.35 543.15 175.96 C 541.09 172.51 542.28 168.18 542.18 164.37 C 547.97 163.17 553.94 164.44 559.74 163.59 C 560.00 163.39 560.52 163.01 560.78 162.81 C 562.50 160.98 564.88 160.09 567.05 158.92 Z" />
<path fill="#ffffff" opacity="1.00" d=" M 79.12 166.51 C 84.01 162.52 91.31 170.09 87.92 175.12 C 86.09 171.32 83.18 167.97 79.12 166.51 Z" />
<path fill="#ffffff" opacity="1.00" d=" M 69.26 172.21 C 72.20 170.21 75.27 167.43 79.08 167.86 C 83.40 168.84 87.29 173.67 85.91 178.13 C 80.07 190.41 68.90 198.74 58.59 207.05 C 60.64 200.54 53.87 193.43 47.29 195.65 C 53.86 187.19 60.46 178.51 69.26 172.21 M 61.05 190.20 C 61.04 191.84 62.75 193.89 64.30 192.31 C 69.69 186.02 75.43 179.95 81.96 174.83 C 82.03 173.32 80.89 171.25 79.11 172.27 C 73.53 178.66 67.73 184.93 61.05 190.20 Z" />
<path fill="#ffffff" opacity="1.00" d=" M 582.44 185.32 C 582.99 183.57 583.18 180.72 585.71 181.22 C 586.16 182.24 586.52 183.31 586.78 184.41 L 587.50 184.38 L 587.45 185.47 L 588.44 185.71 L 588.57 186.36 C 589.28 186.40 590.70 186.48 591.42 186.52 C 591.23 187.24 590.87 188.67 590.69 189.39 C 589.97 189.46 588.53 189.59 587.81 189.65 C 586.74 191.81 585.90 194.07 585.07 196.33 C 583.88 194.50 583.08 192.49 582.47 190.41 L 581.87 190.35 C 580.82 189.33 579.35 189.34 578.01 189.14 C 577.42 186.16 580.50 186.15 582.44 185.32 Z" />
<path fill="#ffffff" opacity="1.00" d=" M 1.37 185.52 C 2.80 184.71 4.45 184.67 6.05 184.69 C 21.97 184.74 37.90 184.72 53.82 184.72 C 52.93 185.78 52.03 186.85 51.14 187.91 C 35.20 187.99 19.25 187.72 3.31 188.07 C 3.39 201.73 3.40 215.38 3.38 229.03 C 30.75 229.30 58.12 228.99 85.49 229.19 C 85.75 215.48 85.55 201.77 85.67 188.07 C 84.73 188.07 82.86 188.07 81.92 188.07 C 82.90 186.72 83.75 183.78 86.00 184.80 C 87.99 185.17 88.96 187.07 88.85 188.95 C 88.90 202.35 88.90 215.74 88.79 229.14 C 88.89 230.61 87.62 232.13 86.06 231.91 C 58.37 231.95 30.68 231.95 2.99 231.91 C 1.30 232.17 0.01 230.50 0.20 228.92 C 0.16 215.96 0.04 202.99 0.15 190.03 C 0.24 188.47 0.07 186.66 1.37 185.52 Z" />
<path fill="#ffffff" opacity="1.00" d=" M 571.85 185.91 C 572.83 187.99 573.63 190.39 576.14 191.02 C 576.28 191.49 576.54 192.42 576.67 192.88 C 574.70 192.85 573.44 193.80 573.11 195.72 C 570.68 195.72 569.83 192.51 567.14 192.92 C 567.13 190.98 568.53 190.35 570.23 190.12 C 570.75 188.71 571.29 187.31 571.85 185.91 Z" />
<path fill="#ffffff" opacity="1.00" d=" M 596.20 189.09 C 596.19 186.67 598.25 188.13 599.47 188.56 C 599.39 188.96 599.23 189.77 599.16 190.18 C 601.48 189.80 601.77 191.45 601.77 193.23 C 601.21 193.27 600.11 193.35 599.56 193.40 C 599.97 195.54 598.23 195.67 596.68 195.86 C 596.38 195.22 595.76 193.95 595.46 193.32 C 594.76 193.31 593.35 193.28 592.65 193.27 C 592.66 192.47 592.69 191.68 592.71 190.88 C 593.87 190.38 596.04 190.82 596.20 189.09 Z" />
<path fill="#ffffff" opacity="1.00" d=" M 259.31 198.62 C 259.77 194.86 264.29 193.85 267.45 194.44 L 267.38 195.30 C 272.98 196.29 272.97 205.05 267.83 206.90 C 264.82 208.92 259.83 207.01 259.25 203.35 L 258.45 203.48 C 258.42 201.83 258.42 200.18 258.45 198.53 L 259.31 198.62 Z" />
<path fill="#ffffff" opacity="1.00" d=" M 289.07 198.14 C 290.64 194.80 294.62 193.43 297.97 194.90 C 301.71 197.03 303.26 202.66 299.62 205.62 C 296.87 209.23 290.01 207.92 289.24 203.34 L 288.43 203.47 C 288.51 201.70 287.99 199.70 289.07 198.14 Z" />
<path fill="#ffffff" opacity="1.00" d=" M 47.87 196.65 C 53.24 194.71 59.11 200.59 57.79 205.95 C 56.56 208.04 53.94 208.87 52.21 210.49 C 53.36 205.77 48.43 200.79 43.70 202.44 C 45.14 200.54 46.33 198.47 47.87 196.65 Z" />
<path fill="#ffffff" opacity="1.00" d=" M 72.70 196.67 C 72.94 197.37 73.41 198.76 73.65 199.45 L 74.76 198.63 L 74.97 196.31 C 75.59 196.32 76.83 196.35 77.45 196.36 C 77.40 196.91 77.30 198.01 77.25 198.57 C 78.48 198.76 79.71 198.97 80.95 199.19 C 80.83 200.25 80.70 201.31 80.57 202.37 C 78.58 201.68 76.49 201.34 74.41 201.79 C 75.62 204.93 79.04 205.59 81.23 207.70 C 83.38 210.94 80.64 214.71 77.26 215.41 C 77.26 216.03 77.25 217.28 77.25 217.91 C 76.61 217.91 75.34 217.91 74.70 217.91 C 74.72 217.31 74.76 216.13 74.78 215.53 C 73.26 215.20 71.75 214.83 70.24 214.46 C 70.44 213.40 70.65 212.35 70.87 211.30 C 73.32 212.15 77.32 213.57 78.36 210.08 C 75.89 208.30 72.21 208.00 70.66 205.14 C 69.36 202.04 73.07 199.80 72.70 196.67 Z" />
<path fill="#ffffff" opacity="1.00" d=" M 544.56 200.64 C 571.18 200.39 597.82 200.40 624.44 200.63 C 624.52 210.42 624.46 220.21 624.49 230.00 C 624.81 233.84 622.20 237.09 619.41 239.40 C 618.15 239.96 616.90 240.53 615.56 240.83 L 615.48 241.46 C 594.83 241.53 574.17 241.59 553.51 241.43 L 553.42 240.80 C 549.65 240.28 546.71 237.27 545.21 233.92 C 544.27 232.07 544.53 229.95 544.51 227.97 C 544.59 218.86 544.43 209.75 544.56 200.64 M 580.26 210.59 L 579.50 210.58 C 579.39 212.45 579.34 214.34 579.39 216.22 C 580.19 217.06 580.99 217.90 581.78 218.76 C 581.54 220.40 581.33 222.04 581.15 223.69 C 583.63 223.73 586.11 223.73 588.59 223.62 C 588.49 222.90 588.29 221.47 588.19 220.76 L 587.36 219.93 C 588.38 218.13 589.75 216.47 590.39 214.48 C 590.84 212.26 589.15 210.46 588.06 208.74 C 585.41 208.18 581.73 207.64 580.26 210.59 Z" />
<path fill="#ffffff" opacity="1.00" d=" M 38.26 208.88 C 40.32 207.16 42.19 205.24 44.13 203.40 C 47.96 202.17 51.29 206.33 51.30 209.86 C 49.49 211.36 48.17 213.32 46.86 215.25 C 42.39 214.64 38.54 216.90 34.94 219.19 C 36.73 216.00 38.59 212.68 38.26 208.88 M 44.02 208.23 C 42.52 209.35 44.50 211.50 45.85 210.39 C 47.45 209.33 45.32 207.10 44.02 208.23 Z" />
<path fill="#ffffff" opacity="1.00" d=" M 839.50 210.71 C 850.02 206.89 862.65 213.31 865.98 223.93 C 868.84 231.86 866.13 241.31 859.64 246.66 C 853.38 252.12 843.75 253.18 836.42 249.30 C 829.69 245.90 824.95 238.62 825.12 231.01 C 824.62 222.01 830.97 213.36 839.50 210.71 M 841.59 213.76 C 833.95 215.64 828.26 223.15 828.55 231.02 C 828.53 239.46 835.55 247.11 843.92 247.98 C 854.14 249.60 864.28 240.36 863.55 230.01 C 863.50 219.22 851.95 210.66 841.59 213.76 Z" />
<path fill="#ffffff" opacity="1.00" d=" M 842.52 218.74 C 851.08 215.72 860.86 224.16 858.96 233.04 C 857.70 240.58 849.02 245.56 841.89 242.80 C 835.28 240.68 831.28 232.55 834.26 226.14 C 835.71 222.59 838.85 219.82 842.52 218.74 M 842.22 220.22 C 837.42 221.80 834.08 226.88 834.69 231.92 C 835.05 238.39 841.82 243.27 848.09 242.07 C 853.75 241.31 858.36 235.81 857.75 230.05 C 857.51 222.62 848.99 217.54 842.22 220.22 Z" />
<path fill="#ffffff" opacity="1.00" d=" M 6.65 220.89 C 31.90 220.91 57.16 220.88 82.41 220.91 C 82.30 221.32 82.08 222.15 81.97 222.56 C 57.99 222.71 34.00 222.53 10.02 222.65 C 8.79 222.41 5.96 223.34 6.65 220.89 Z" />
<path fill="#ffffff" opacity="1.00" d=" M 847.53 226.99 C 848.25 225.48 850.19 223.22 851.91 224.98 C 854.13 226.15 852.37 229.98 850.05 229.10 C 847.53 228.45 845.24 230.10 842.93 230.82 C 844.68 231.57 846.47 232.28 848.26 233.00 C 848.98 232.81 850.42 232.42 851.13 232.23 C 852.57 233.20 853.84 235.52 851.94 236.74 C 850.08 238.67 848.49 236.08 847.38 234.81 C 845.19 233.31 842.47 232.53 839.86 233.24 C 837.37 232.36 837.90 229.34 839.89 228.21 C 840.61 228.41 842.05 228.81 842.77 229.00 C 844.35 228.34 845.95 227.68 847.53 226.99 Z" />
</g>
<g id="#fdfdfdfd">
<path fill="#fdfdfd" opacity="1.00" d=" M 6.69 197.57 C 18.91 197.60 31.13 197.48 43.35 197.62 C 43.54 198.00 43.91 198.74 44.10 199.11 C 31.64 199.26 19.17 199.12 6.71 199.18 L 6.69 197.57 Z" />
</g>
<g id="#d0d0d0d0">
<path fill="#d0d0d0" opacity="0.82" d=" M 6.96 209.11 C 16.75 208.98 26.56 208.99 36.35 209.10 C 36.37 209.56 36.40 210.48 36.41 210.94 C 26.45 211.09 16.47 210.95 6.50 211.00 C 6.62 210.53 6.84 209.58 6.96 209.11 Z" />
</g>
<g id="#abababab">
<path fill="#ababab" opacity="0.67" d=" M 259.00 219.00 C 273.67 219.00 288.33 219.00 303.00 219.00 C 303.00 219.50 303.00 220.50 303.00 221.00 C 288.33 221.00 273.67 221.00 259.00 221.00 C 259.00 220.50 259.00 219.50 259.00 219.00 Z" />
<path fill="#ababab" opacity="0.67" d=" M 259.00 223.00 C 273.67 223.00 288.33 223.00 303.00 223.00 C 303.00 223.50 303.00 224.50 303.00 225.00 C 288.33 225.00 273.67 225.00 259.00 225.00 C 259.00 224.50 259.00 223.50 259.00 223.00 Z" />
</g>
</svg>
