<?xml version="1.0" encoding="UTF-8" ?>
<!DOCTYPE svg PUBLIC "-//W3C//DTD SVG 1.1//EN" "http://www.w3.org/Graphics/SVG/1.1/DTD/svg11.dtd">
<svg width="49pt" height="33pt" viewBox="0 0 49 33" version="1.1" xmlns="http://www.w3.org/2000/svg">
<g id="#000000ff">
<path fill="#000000" opacity="1.00" d=" M 5.50 6.94 C 6.11 6.55 7.33 5.79 7.93 5.40 C 13.35 5.01 18.82 5.17 24.24 5.50 C 23.10 7.93 20.44 7.48 18.26 7.71 C 20.63 10.63 22.89 13.64 25.10 16.69 C 27.25 14.66 29.48 12.72 31.82 10.91 C 29.76 10.76 27.88 9.95 26.30 8.66 C 31.75 8.06 37.28 8.11 42.74 8.60 C 40.28 10.00 37.52 10.70 35.02 11.99 C 31.95 13.84 29.45 16.44 26.86 18.87 C 26.89 21.04 26.92 23.20 26.97 25.37 C 29.26 25.78 31.55 26.19 33.74 27.00 C 27.93 28.04 22.00 27.35 16.15 27.75 C 16.10 27.36 16.00 26.58 15.95 26.19 C 17.75 25.97 19.55 25.76 21.36 25.55 C 21.17 22.74 21.89 19.47 19.84 17.16 C 17.36 13.92 14.93 10.54 11.80 7.88 C 9.72 7.45 7.59 7.34 5.50 6.94 Z" />
<path fill="#000000" opacity="1.00" d=" M 39.19 13.01 C 40.85 13.18 42.51 13.33 44.17 13.45 C 42.64 16.94 43.42 22.22 39.42 24.04 C 39.18 20.37 39.22 16.69 39.19 13.01 Z" />
<path fill="#000000" opacity="1.00" d=" M 39.29 25.19 C 40.70 24.06 42.57 26.39 41.03 27.45 C 39.63 28.62 37.75 26.22 39.29 25.19 Z" />
</g>
</svg>
